<?xml version="1.0" encoding="utf-8"?>
<!-- Generator: Adobe Illustrator 19.0.0, SVG Export Plug-In . SVG Version: 6.00 Build 0)  -->
<svg version="1.1" id="Layer_1" xmlns="http://www.w3.org/2000/svg" xmlns:xlink="http://www.w3.org/1999/xlink" x="0px" y="0px"
	 viewBox="-49 173.2 495.7 495.7" style="enable-background:new -49 173.2 495.7 495.7;" xml:space="preserve">
<style type="text/css">
	.st0{fill:#FCFCFC;}
	.st1{fill:#E0693F;}
	.st2{fill:none;stroke:#FCFCFC;stroke-width:3;stroke-miterlimit:10;}
</style>
<g>
	<g>
		<path class="st0" d="M209.8,470.9c-15.1,0-28.3-10-32.4-24.3l6-1.7c3.3,11.6,14.1,19.7,26.2,19.7c15.2,0,27.4-12.2,27.4-27.2
			v-26.8c0-12.4,6.6-24.1,17.2-30.5c8.8-5.3,14.2-14.9,14.2-25.1v-1c0-24-19.5-43.5-43.5-43.5c-11.6,0-22.6,4.5-30.8,12.8
			l-11.5,11.5l-4.4-4.4l11.5-11.5c9.4-9.4,21.9-14.6,35.2-14.6c27.5,0,49.8,22.4,49.8,49.8v1c0,12.4-6.6,24.1-17.2,30.5
			c-8.8,5.3-14.2,14.9-14.2,25.1v26.8C243.3,455.9,228.3,470.9,209.8,470.9z"/>
		<path class="st1" d="M197,406.3h5.7c0.7,0,1.3-0.6,1.3-1.3v-26.4c0-0.7-0.6-1.3-1.3-1.3H197c-0.7,0-1.3,0.6-1.3,1.3V405
			C195.6,405.7,196.2,406.3,197,406.3z"/>
		<path class="st1" d="M178.8,430.5h5.7c0.7,0,1.3-0.6,1.3-1.3v-77.5c0-0.7-0.6-1.3-1.3-1.3h-5.7c-0.7,0-1.3,0.6-1.3,1.3v77.5
			C177.4,429.9,178,430.5,178.8,430.5z"/>
		<path class="st1" d="M159.2,414.8h5.7c0.7,0,1.3-0.6,1.3-1.3v-43.6c0-0.7-0.6-1.3-1.3-1.3h-5.7c-0.7,0-1.3,0.6-1.3,1.3v43.6
			C157.8,414.2,158.4,414.8,159.2,414.8z"/>
		<path class="st1" d="M139,425.7h5.7c0.7,0,1.3-0.6,1.3-1.3V359c0-0.7-0.6-1.3-1.3-1.3H139c-0.7,0-1.3,0.6-1.3,1.3v65.4
			C137.7,425.1,138.3,425.7,139,425.7z"/>
	</g>
	<path class="st2" d="M204,348.5c1.4,3.9,5.6,6.8,10.4,7c5.2,0.2,10.1-2.6,11.7-6.8"/>
</g>
</svg>
